<?xml version="1.0" encoding="UTF-8"?>
<svg xmlns="http://www.w3.org/2000/svg" xmlns:xlink="http://www.w3.org/1999/xlink" width="48pt" height="48pt" viewBox="0 0 48 48" version="1.1">
<g id="surface12131467">
<path style=" stroke:none;fill-rule:nonzero;fill:rgb(100%,100%,100%);fill-opacity:1;" d="M 24 48 C 10.746094 48 0 37.253906 0 24 C 0 10.746094 10.746094 0 24 0 C 37.253906 0 48 10.746094 48 24 C 48 37.253906 37.253906 48 24 48 Z M 24 48 "/>
<path style=" stroke:none;fill-rule:nonzero;fill:rgb(27.058824%,35.294118%,39.215686%);fill-opacity:1;" d="M 38.769531 16.484375 C 39.3125 14.941406 39.859375 11.953125 38.40625 8.601562 C 34.332031 8.601562 30.886719 11.5 30.34375 12.042969 C 28.347656 11.589844 26.175781 11.410156 24 11.410156 C 21.734375 11.410156 19.558594 11.679688 17.476562 12.132812 C 14.667969 9.234375 10.953125 8.601562 9.5 8.601562 C 9.5 8.601562 8.6875 10.230469 8.6875 13.128906 C 8.6875 14.941406 9.140625 16.03125 9.410156 16.574219 C 7.234375 18.839844 5.875 21.921875 5.875 25.90625 C 5.875 36.054688 12.3125 39.5 24 39.5 C 35.6875 39.5 42.125 36.054688 42.125 25.90625 C 42.125 21.738281 40.855469 18.660156 38.769531 16.484375 Z M 38.769531 16.484375 "/>
<path style=" stroke:none;fill-rule:nonzero;fill:rgb(93.333333%,80.392157%,76.470588%);fill-opacity:1;" d="M 24 37.597656 C 16.570312 37.597656 10.40625 36.328125 10.40625 29.441406 C 10.40625 26.8125 11.859375 25.363281 12.855469 24.457031 C 15.121094 22.464844 18.925781 23.371094 24 23.371094 C 27.714844 23.371094 30.886719 22.734375 33.425781 23.550781 C 35.960938 24.367188 37.59375 26.722656 37.59375 29.261719 C 37.59375 36.417969 33.96875 37.597656 24 37.597656 Z M 24 37.597656 "/>
<path style=" stroke:none;fill-rule:nonzero;fill:rgb(84.705882%,26.27451%,8.235294%);fill-opacity:1;" d="M 24.90625 33.066406 C 24.90625 33.609375 24.542969 33.972656 24 33.972656 C 23.457031 33.972656 23.09375 33.609375 23.09375 33.066406 C 23.09375 32.523438 23.457031 32.160156 24 32.160156 C 24.542969 32.160156 24.90625 32.523438 24.90625 33.066406 Z M 26.265625 35.332031 C 26.445312 35.152344 26.445312 34.878906 26.265625 34.699219 C 26.085938 34.515625 25.8125 34.515625 25.632812 34.699219 C 24.816406 35.511719 23.273438 35.511719 22.460938 34.699219 C 22.277344 34.515625 22.007812 34.515625 21.824219 34.699219 C 21.644531 34.878906 21.644531 35.152344 21.824219 35.332031 C 22.460938 35.964844 23.183594 36.238281 24.089844 36.238281 C 24.996094 36.238281 25.632812 35.875 26.265625 35.332031 Z M 26.265625 35.332031 "/>
<path style=" stroke:none;fill-rule:nonzero;fill:rgb(100%,100%,100%);fill-opacity:1;" d="M 19.46875 28.988281 C 19.46875 31.253906 18.292969 33.066406 16.75 33.066406 C 15.210938 33.066406 14.03125 31.253906 14.03125 28.988281 C 14.03125 26.722656 15.210938 24.910156 16.75 24.910156 C 18.292969 24.910156 19.46875 26.722656 19.46875 28.988281 Z M 31.25 24.910156 C 29.707031 24.910156 28.53125 26.722656 28.53125 28.988281 C 28.53125 31.253906 29.707031 33.066406 31.25 33.066406 C 32.789062 33.066406 33.96875 31.253906 33.96875 28.988281 C 33.96875 26.722656 32.789062 24.910156 31.25 24.910156 Z M 31.25 24.910156 "/>
<path style=" stroke:none;fill-rule:nonzero;fill:rgb(42.745098%,29.803922%,25.490196%);fill-opacity:1;" d="M 33.0625 29.441406 C 33.0625 30.980469 32.246094 32.160156 31.25 32.160156 C 30.253906 32.160156 29.4375 30.980469 29.4375 29.441406 C 29.4375 29.261719 29.4375 28.988281 29.527344 28.808594 C 29.617188 29.167969 29.980469 29.441406 30.34375 29.441406 C 30.886719 29.441406 31.25 29.078125 31.25 28.535156 C 31.25 27.992188 30.886719 27.628906 30.34375 27.628906 C 30.160156 27.628906 29.980469 27.71875 29.800781 27.8125 C 30.160156 27.175781 30.613281 26.722656 31.25 26.722656 C 32.246094 26.722656 33.0625 27.902344 33.0625 29.441406 Z M 16.75 26.722656 C 16.117188 26.722656 15.664062 27.175781 15.300781 27.8125 C 15.480469 27.71875 15.664062 27.628906 15.84375 27.628906 C 16.386719 27.628906 16.75 27.992188 16.75 28.535156 C 16.75 29.078125 16.386719 29.441406 15.84375 29.441406 C 15.480469 29.441406 15.121094 29.167969 15.027344 28.808594 C 15.027344 28.988281 14.9375 29.261719 14.9375 29.441406 C 14.9375 30.980469 15.753906 32.160156 16.75 32.160156 C 17.746094 32.160156 18.5625 30.980469 18.5625 29.441406 C 18.5625 27.902344 17.746094 26.722656 16.75 26.722656 Z M 16.75 26.722656 "/>
</g>
</svg>
