<?xml version="1.0" encoding="UTF-8"?>
<svg xmlns="http://www.w3.org/2000/svg" xmlns:xlink="http://www.w3.org/1999/xlink" width="64pt" height="64pt" viewBox="0 0 64 64" version="1.1">
<g id="surface400065">
<path style=" stroke:none;fill-rule:nonzero;fill:rgb(100%,100%,100%);fill-opacity:1;" d="M 32 64 C 14.328125 64 0 49.671875 0 32 C 0 14.328125 14.328125 0 32 0 C 49.671875 0 64 14.328125 64 32 C 64 49.671875 49.671875 64 32 64 Z M 32 64 "/>
<path style=" stroke:none;fill-rule:nonzero;fill:rgb(90.588235%,82.352941%,74.509804%);fill-opacity:1;" d="M 10.75 24.351562 L 53.25 24.351562 L 53.25 48.148438 C 53.25 50.964844 50.964844 53.25 48.148438 53.25 L 15.851562 53.25 C 13.035156 53.25 10.75 50.964844 10.75 48.148438 Z M 10.75 24.351562 "/>
<path style=" stroke:none;fill-rule:nonzero;fill:rgb(76.470588%,66.666667%,55.294118%);fill-opacity:1;" d="M 10.65625 48.148438 L 53.25 48.148438 L 53.25 49.195312 C 53.25 51.542969 51.347656 53.445312 49 53.445312 L 14.90625 53.445312 C 12.558594 53.445312 10.65625 51.542969 10.65625 49.195312 Z M 10.65625 48.148438 "/>
<path style=" stroke:none;fill-rule:nonzero;fill:rgb(69.019608%,48.627451%,51.764706%);fill-opacity:1;" d="M 15.851562 10.75 L 48.148438 10.75 C 50.964844 10.75 53.25 13.035156 53.25 15.851562 L 53.25 24.351562 L 10.75 24.351562 L 10.75 15.851562 C 10.75 13.035156 13.035156 10.75 15.851562 10.75 Z M 15.851562 10.75 "/>
<path style=" stroke:none;fill-rule:nonzero;fill:rgb(66.27451%,80.392157%,91.372549%);fill-opacity:1;" d="M 43.050781 14.148438 L 49.851562 14.148438 L 49.851562 19.25 L 43.050781 19.25 Z M 43.050781 14.148438 "/>
<path style=" stroke:none;fill-rule:nonzero;fill:rgb(81.176471%,74.117647%,43.137255%);fill-opacity:1;" d="M 32 20.949219 C 25.898438 20.949219 20.949219 25.898438 20.949219 32 C 20.949219 38.101562 25.898438 43.050781 32 43.050781 C 38.101562 43.050781 43.050781 38.101562 43.050781 32 C 43.050781 25.898438 38.101562 20.949219 32 20.949219 Z M 32 20.949219 "/>
<path style=" stroke:none;fill-rule:nonzero;fill:rgb(66.27451%,80.392157%,91.372549%);fill-opacity:1;" d="M 32 23.5 C 27.304688 23.5 23.5 27.304688 23.5 32 C 23.5 36.695312 27.304688 40.5 32 40.5 C 36.695312 40.5 40.5 36.695312 40.5 32 C 40.5 27.304688 36.695312 23.5 32 23.5 Z M 32 23.5 "/>
<path style=" stroke:none;fill-rule:nonzero;fill:rgb(69.803922%,82.352941%,91.372549%);fill-opacity:1;" d="M 32 27.75 C 29.652344 27.75 27.75 29.652344 27.75 32 C 27.75 34.347656 29.652344 36.25 32 36.25 C 34.347656 36.25 36.25 34.347656 36.25 32 C 36.25 29.652344 34.347656 27.75 32 27.75 Z M 32 27.75 "/>
<path style=" stroke:none;fill-rule:nonzero;fill:rgb(100%,93.72549%,93.72549%);fill-opacity:1;" d="M 30.300781 27.75 C 28.890625 27.75 27.75 28.890625 27.75 30.300781 C 27.75 31.707031 28.890625 32.851562 30.300781 32.851562 C 31.707031 32.851562 32.851562 31.707031 32.851562 30.300781 C 32.851562 28.890625 31.707031 27.75 30.300781 27.75 Z M 34.976562 33.699219 C 34.269531 33.699219 33.699219 34.269531 33.699219 34.976562 C 33.699219 35.679688 34.269531 36.25 34.976562 36.25 C 35.679688 36.25 36.25 35.679688 36.25 34.976562 C 36.25 34.269531 35.679688 33.699219 34.976562 33.699219 Z M 34.976562 33.699219 "/>
<path style=" stroke:none;fill-rule:nonzero;fill:rgb(46.27451%,33.333333%,53.333333%);fill-opacity:1;" d="M 48.148438 9.898438 L 15.851562 9.898438 C 12.5625 9.898438 9.898438 12.5625 9.898438 15.851562 L 9.898438 48.148438 C 9.898438 51.4375 12.5625 54.101562 15.851562 54.101562 L 48.148438 54.101562 C 51.4375 54.101562 54.101562 51.4375 54.101562 48.148438 L 54.101562 15.851562 C 54.101562 12.5625 51.4375 9.898438 48.148438 9.898438 Z M 15.851562 11.601562 L 16.699219 11.601562 L 16.699219 14.148438 C 16.699219 14.621094 17.082031 15 17.550781 15 C 18.019531 15 18.398438 14.621094 18.398438 14.148438 L 18.398438 11.601562 L 48.148438 11.601562 C 50.496094 11.601562 52.398438 13.503906 52.398438 15.851562 L 52.398438 23.5 L 40.5 23.5 C 40.429688 23.511719 40.359375 23.511719 40.289062 23.5 C 35.667969 19.003906 28.308594 19.003906 23.6875 23.5 C 23.625 23.503906 23.5625 23.503906 23.5 23.5 L 11.601562 23.5 L 11.601562 15.851562 C 11.601562 13.503906 13.503906 11.601562 15.851562 11.601562 Z M 32 21.800781 C 37.632812 21.800781 42.199219 26.367188 42.199219 32 C 42.199219 37.632812 37.632812 42.199219 32 42.199219 C 26.367188 42.199219 21.800781 37.632812 21.800781 32 C 21.800781 26.367188 26.367188 21.800781 32 21.800781 Z M 48.148438 52.398438 L 15.851562 52.398438 C 13.503906 52.398438 11.601562 50.496094 11.601562 48.148438 L 11.601562 25.199219 L 22.25 25.199219 C 18.792969 30.148438 19.585938 36.898438 24.097656 40.910156 C 28.605469 44.921875 35.402344 44.921875 39.914062 40.910156 C 44.421875 36.898438 45.214844 30.148438 41.757812 25.199219 L 52.398438 25.199219 L 52.398438 48.148438 C 52.398438 50.496094 50.496094 52.398438 48.148438 52.398438 Z M 48.148438 52.398438 "/>
<path style=" stroke:none;fill-rule:nonzero;fill:rgb(46.27451%,33.333333%,53.333333%);fill-opacity:1;" d="M 32 40.5 C 36.695312 40.5 40.5 36.695312 40.5 32 C 40.5 27.304688 36.695312 23.5 32 23.5 C 27.304688 23.5 23.5 27.304688 23.5 32 C 23.5 36.695312 27.304688 40.5 32 40.5 Z M 32 25.199219 C 35.753906 25.199219 38.800781 28.246094 38.800781 32 C 38.800781 35.753906 35.753906 38.800781 32 38.800781 C 28.246094 38.800781 25.199219 35.753906 25.199219 32 C 25.199219 28.246094 28.246094 25.199219 32 25.199219 Z M 44.75 20.101562 L 48.148438 20.101562 C 49.558594 20.101562 50.699219 18.957031 50.699219 17.550781 L 50.699219 15.851562 C 50.699219 14.441406 49.558594 13.300781 48.148438 13.300781 L 44.75 13.300781 C 43.339844 13.300781 42.199219 14.441406 42.199219 15.851562 L 42.199219 17.550781 C 42.199219 18.957031 43.339844 20.101562 44.75 20.101562 Z M 43.898438 15.851562 C 43.898438 15.378906 44.28125 15 44.75 15 L 48.148438 15 C 48.621094 15 49 15.378906 49 15.851562 L 49 17.550781 C 49 18.019531 48.621094 18.398438 48.148438 18.398438 L 44.75 18.398438 C 44.28125 18.398438 43.898438 18.019531 43.898438 17.550781 Z M 15 46.449219 C 14.53125 46.449219 14.148438 46.832031 14.148438 47.300781 L 14.148438 49 C 14.148438 49.46875 14.53125 49.851562 15 49.851562 C 15.46875 49.851562 15.851562 49.46875 15.851562 49 L 15.851562 47.300781 C 15.851562 46.832031 15.46875 46.449219 15 46.449219 Z M 19.25 46.449219 C 18.78125 46.449219 18.398438 46.832031 18.398438 47.300781 L 18.398438 49 C 18.398438 49.46875 18.78125 49.851562 19.25 49.851562 C 19.71875 49.851562 20.101562 49.46875 20.101562 49 L 20.101562 47.300781 C 20.101562 46.832031 19.71875 46.449219 19.25 46.449219 Z M 23.5 46.449219 C 23.03125 46.449219 22.648438 46.832031 22.648438 47.300781 L 22.648438 49 C 22.648438 49.46875 23.03125 49.851562 23.5 49.851562 C 23.96875 49.851562 24.351562 49.46875 24.351562 49 L 24.351562 47.300781 C 24.351562 46.832031 23.96875 46.449219 23.5 46.449219 Z M 27.75 46.449219 C 27.28125 46.449219 26.898438 46.832031 26.898438 47.300781 L 26.898438 49 C 26.898438 49.46875 27.28125 49.851562 27.75 49.851562 C 28.21875 49.851562 28.601562 49.46875 28.601562 49 L 28.601562 47.300781 C 28.601562 46.832031 28.21875 46.449219 27.75 46.449219 Z M 36.25 46.449219 C 35.78125 46.449219 35.398438 46.832031 35.398438 47.300781 L 35.398438 49 C 35.398438 49.46875 35.78125 49.851562 36.25 49.851562 C 36.71875 49.851562 37.101562 49.46875 37.101562 49 L 37.101562 47.300781 C 37.101562 46.832031 36.71875 46.449219 36.25 46.449219 Z M 32 46.449219 C 31.53125 46.449219 31.148438 46.832031 31.148438 47.300781 L 31.148438 49 C 31.148438 49.46875 31.53125 49.851562 32 49.851562 C 32.46875 49.851562 32.851562 49.46875 32.851562 49 L 32.851562 47.300781 C 32.851562 46.832031 32.46875 46.449219 32 46.449219 Z M 40.5 46.449219 C 40.03125 46.449219 39.648438 46.832031 39.648438 47.300781 L 39.648438 49 C 39.648438 49.46875 40.03125 49.851562 40.5 49.851562 C 40.96875 49.851562 41.351562 49.46875 41.351562 49 L 41.351562 47.300781 C 41.351562 46.832031 40.96875 46.449219 40.5 46.449219 Z M 44.75 46.449219 C 44.28125 46.449219 43.898438 46.832031 43.898438 47.300781 L 43.898438 49 C 43.898438 49.46875 44.28125 49.851562 44.75 49.851562 C 45.21875 49.851562 45.601562 49.46875 45.601562 49 L 45.601562 47.300781 C 45.601562 46.832031 45.21875 46.449219 44.75 46.449219 Z M 49 46.449219 C 48.53125 46.449219 48.148438 46.832031 48.148438 47.300781 L 48.148438 49 C 48.148438 49.46875 48.53125 49.851562 49 49.851562 C 49.46875 49.851562 49.851562 49.46875 49.851562 49 L 49.851562 47.300781 C 49.851562 46.832031 49.46875 46.449219 49 46.449219 Z M 17.550781 21.800781 C 18.019531 21.800781 18.398438 21.417969 18.398438 20.949219 L 18.398438 17.550781 C 18.398438 17.082031 18.019531 16.699219 17.550781 16.699219 C 17.082031 16.699219 16.699219 17.082031 16.699219 17.550781 L 16.699219 20.949219 C 16.699219 21.417969 17.082031 21.800781 17.550781 21.800781 Z M 17.550781 21.800781 "/>
</g>
</svg>
