<?xml version="1.0" encoding="UTF-8"?>
<svg xmlns="http://www.w3.org/2000/svg" xmlns:xlink="http://www.w3.org/1999/xlink" width="48pt" height="48pt" viewBox="0 0 48 48" version="1.1">
<defs>
<filter id="alpha" filterUnits="objectBoundingBox" x="0%" y="0%" width="100%" height="100%">
  <feColorMatrix type="matrix" in="SourceGraphic" values="0 0 0 0 1 0 0 0 0 1 0 0 0 0 1 0 0 0 1 0"/>
</filter>
<mask id="mask0">
  <g filter="url(#alpha)">
<rect x="0" y="0" width="48" height="48" style="fill:rgb(0%,0%,0%);fill-opacity:0.0509804;stroke:none;"/>
  </g>
</mask>
<clipPath id="clip1">
  <rect width="48" height="48"/>
</clipPath>
<g id="surface405598" clip-path="url(#clip1)">
<path style=" stroke:none;fill-rule:nonzero;fill:rgb(0%,0%,0%);fill-opacity:1;" d="M 29.578125 36.089844 L 29.578125 26.699219 C 29.578125 25.128906 28.816406 24.1875 27.542969 24.1875 C 26.785156 24.1875 26.226562 24.617188 25.886719 25.457031 C 25.871094 25.515625 25.847656 25.757812 25.859375 26.492188 L 25.859375 36.089844 L 19.351562 36.089844 L 19.351562 18.421875 L 25.859375 18.421875 L 25.859375 19.40625 C 26.808594 18.75 27.976562 18.421875 29.335938 18.421875 C 33.566406 18.421875 36.089844 21.296875 36.089844 26.113281 L 36.089844 36.089844 Z M 11.910156 36.089844 L 11.910156 18.421875 L 15.125 18.421875 C 13.261719 18.421875 11.910156 17.050781 11.910156 15.164062 C 11.910156 13.277344 13.285156 11.910156 15.179688 11.910156 C 17.050781 11.910156 18.382812 13.242188 18.421875 15.144531 C 18.421875 17.046875 17.042969 18.421875 15.152344 18.421875 L 18.421875 18.421875 L 18.421875 36.089844 Z M 11.910156 36.089844 "/>
</g>
<mask id="mask1">
  <g filter="url(#alpha)">
<rect x="0" y="0" width="48" height="48" style="fill:rgb(0%,0%,0%);fill-opacity:0.0705882;stroke:none;"/>
  </g>
</mask>
<clipPath id="clip2">
  <rect width="48" height="48"/>
</clipPath>
<g id="surface405601" clip-path="url(#clip2)">
<path style=" stroke:none;fill-rule:nonzero;fill:rgb(0%,0%,0%);fill-opacity:1;" d="M 30.046875 35.625 L 30.046875 26.699219 C 30.046875 24.863281 29.085938 23.722656 27.542969 23.722656 C 26.335938 23.722656 25.742188 24.570312 25.457031 25.285156 C 25.378906 25.46875 25.390625 26.203125 25.394531 26.515625 L 25.394531 35.625 L 19.816406 35.625 L 19.816406 18.886719 L 25.394531 18.886719 L 25.394531 20.410156 C 26.132812 19.644531 27.324219 18.886719 29.335938 18.886719 C 33.273438 18.886719 35.625 21.585938 35.625 26.113281 L 35.625 35.625 Z M 12.375 35.625 L 12.375 18.886719 L 17.953125 18.886719 L 17.953125 35.625 Z M 15.125 17.953125 C 13.53125 17.953125 12.375 16.78125 12.375 15.164062 C 12.375 13.546875 13.554688 12.375 15.179688 12.375 C 16.78125 12.375 17.921875 13.519531 17.953125 15.15625 C 17.953125 16.78125 16.777344 17.953125 15.152344 17.953125 Z M 15.125 17.953125 "/>
</g>
</defs>
<g id="surface405593">
<path style=" stroke:none;fill-rule:nonzero;fill:rgb(100%,100%,100%);fill-opacity:1;" d="M 24 48 C 10.746094 48 0 37.253906 0 24 C 0 10.746094 10.746094 0 24 0 C 37.253906 0 48 10.746094 48 24 C 48 37.253906 37.253906 48 24 48 Z M 24 48 "/>
<path style=" stroke:none;fill-rule:nonzero;fill:rgb(41.568627%,70.980392%,89.019608%);fill-opacity:1;" d="M 40.738281 36.089844 C 40.738281 38.660156 38.660156 40.738281 36.089844 40.738281 L 11.910156 40.738281 C 9.34375 40.738281 7.261719 38.660156 7.261719 36.089844 L 7.261719 11.910156 C 7.261719 9.339844 9.34375 7.261719 11.910156 7.261719 L 36.089844 7.261719 C 38.660156 7.261719 40.738281 9.339844 40.738281 11.910156 Z M 40.738281 36.089844 "/>
<use xlink:href="#surface405598" mask="url(#mask0)"/>
<use xlink:href="#surface405601" mask="url(#mask1)"/>
<path style=" stroke:none;fill-rule:nonzero;fill:rgb(100%,100%,100%);fill-opacity:1;" d="M 12.839844 19.351562 L 17.488281 19.351562 L 17.488281 35.160156 L 12.839844 35.160156 Z M 15.152344 17.488281 L 15.125 17.488281 C 13.738281 17.488281 12.839844 16.457031 12.839844 15.164062 C 12.839844 13.84375 13.765625 12.839844 15.179688 12.839844 C 16.59375 12.839844 17.464844 13.84375 17.488281 15.164062 C 17.488281 16.453125 16.59375 17.488281 15.152344 17.488281 Z M 35.160156 35.160156 L 30.511719 35.160156 L 30.511719 26.699219 C 30.511719 24.652344 29.371094 23.257812 27.542969 23.257812 C 26.144531 23.257812 25.390625 24.199219 25.023438 25.109375 C 24.890625 25.433594 24.929688 26.335938 24.929688 26.789062 L 24.929688 35.160156 L 20.28125 35.160156 L 20.28125 19.351562 L 24.929688 19.351562 L 24.929688 21.78125 C 25.601562 20.746094 26.652344 19.351562 29.335938 19.351562 C 32.664062 19.351562 35.160156 21.441406 35.160156 26.113281 Z M 35.160156 35.160156 "/>
</g>
</svg>
